<svg xmlns="http://www.w3.org/2000/svg" viewBox="0 0 48 48"><defs><style>.cls-5{fill:#edebf2}.cls-6{fill:#df8761}</style></defs><g id="Barn"><path d="M41 24v22H7V24l4-12 13-8 13 8z" style="fill:#db5669"/><path d="M41 27v17H20a10 10 0 0 1-10-10c0-14.24-.59-10.24 2.68-20L24 7l13 8z" style="fill:#f26674"/><path style="fill:#dad7e5" d="m47 24-2 3-4-2-4-12-13-8-13 8-4 12-4 2-2-3 3-2 4-12 16-9 16 9 4 12 3 2z"/><path d="M22 6 9 14 5 26l2-1 4-12c12.44-7.65 11.27-6.83 11-7z" style="fill:#c6c3d8"/><path class="cls-5" d="m44 22-4-12-16-9-1.89 1.06L38 11l4 12 3 2-1 1.5 1 .5 2-3-3-2z"/><path class="cls-6" d="M13 26h22v20H13z"/><path d="M35 26v18c-12.06 0-19-8.86-19-18z" style="fill:#f29b75"/><path class="cls-6" d="M20 13h8v8h-8z"/><path class="cls-5" d="M36 46.14c0-.25.08-20.18 0-20.5a3.54 3.54 0 0 0-.19-.31C35.28 24.82 12.31 25 13 25a1.08 1.08 0 0 0-.69.3c-.09.1 0 0-.09.14a.64.64 0 0 0-.16.41c0 .25-.08 20.18 0 20.5A1 1 0 0 0 13 47c22.87 0 22.8.33 23-.86zM14 28.26 22.51 36 14 43.74zM15.59 27h16.82L24 34.65zM24 37.35 32.41 45H15.59zM25.49 36 34 28.26v15.48zM29 13a1 1 0 0 0-1-1h-8a1 1 0 0 0-1 1c0 8.36-.24 8.57.62 8.92.27.11-.35.08 8.38.08a1 1 0 0 0 .92-.62c.08-.26.08.35.08-8.38zm-2 5.59-2-2V14h2zm-3-.18L25.59 20h-3.18zM23 14v2.59l-2 2V14z"/><path d="M46 47H2a1 1 0 0 1 0-2h44a1 1 0 0 1 0 2z" style="fill:#374f68"/></g></svg>